<svg xmlns="http://www.w3.org/2000/svg" viewBox="0 0 100 100">
  <defs>
    <linearGradient id="grad1" x1="0%" y1="0%" x2="100%" y2="100%">
      <stop offset="0%" style="stop-color:#667eea;stop-opacity:1" />
      <stop offset="100%" style="stop-color:#764ba2;stop-opacity:1" />
    </linearGradient>
  </defs>
  
  <!-- 背景圆形 -->
  <circle cx="50" cy="50" r="48" fill="url(#grad1)"/>
  
  <!-- 对话框图标 -->
  <g fill="white">
    <!-- 主对话框 -->
    <rect x="20" y="25" width="45" height="35" rx="5" ry="5" opacity="0.9"/>
    <!-- 对话框尾巴 -->
    <polygon points="35,60 40,70 45,60" opacity="0.9"/>
    
    <!-- 客服耳机 -->
    <path d="M 65 35 Q 75 25, 85 35 L 85 45 Q 85 50, 80 50 L 75 50 L 75 40 L 70 40 L 70 50 L 65 50 Q 60 50, 60 45 L 60 35 Z" opacity="0.9"/>
    
    <!-- 笑脸 -->
    <circle cx="30" cy="35" r="2" fill="#667eea"/>
    <circle cx="42" cy="35" r="2" fill="#667eea"/>
    <path d="M 28 45 Q 36 50, 44 45" stroke="#667eea" stroke-width="2" fill="none" stroke-linecap="round"/>
  </g>
  
  <!-- 闪亮效果 -->
  <circle cx="70" cy="30" r="3" fill="white" opacity="0.6"/>
</svg>
